<svg xmlns="http://www.w3.org/2000/svg" width="77" height="77" viewBox="0 0 77 77">
    <g fill="#DB6363" fill-rule="nonzero" stroke="#DB6363" stroke-width=".9">
        <path d="M38.5 1C17.823 1 1 17.822 1 38.5S17.822 76 38.5 76 76 59.178 76 38.5 59.178 1 38.5 1zm0 72.214C19.36 73.214 3.786 57.64 3.786 38.5 3.786 19.36 19.36 3.786 38.5 3.786c19.14 0 34.714 15.573 34.714 34.714 0 19.14-15.573 34.714-34.714 34.714z"/>
        <path d="M38.468 10.036c-.767 0-1.388.63-1.388 1.409v25.593H21.364c-.767 0-1.388.63-1.388 1.409 0 .777.62 1.408 1.388 1.408h17.104c.766 0 1.387-.63 1.387-1.408V11.445c0-.779-.621-1.409-1.387-1.409z"/>
    </g>
</svg>
