<svg xmlns="http://www.w3.org/2000/svg" width="51" height="82" viewBox="0 0 51 82">
    <g fill="#DB6363" fill-rule="evenodd">
        <path d="M26.395 13.607c4.197 0 7.542 3.376 7.542 7.568s-3.345 7.57-7.542 7.57c-4.197 0-7.542-3.378-7.542-7.57s3.345-7.568 7.542-7.568m0-3.695c-6.147 0-11.184 5.054-11.184 11.263S20.248 32.44 26.395 32.44c6.146 0 11.184-5.056 11.184-11.265 0-6.209-5.038-11.263-11.184-11.263"/>
        <path d="M25.492 4.997c11.511 0 20.772 9.251 20.772 20.7 0 10.979-5.563 23.66-11.243 33.461-4.224 7.285-7.645 11.863-9.529 14.298-1.886-2.435-5.307-7.013-9.529-14.298-5.681-9.8-11.243-22.482-11.243-33.461 0-11.449 9.26-20.7 20.772-20.7m0-4.755C11.454.242 0 11.654 0 25.697c0 12.548 6.003 25.707 11.887 35.859 5.885 10.152 11.787 17.33 11.787 17.33l1.818 2.213 1.819-2.212s5.9-7.179 11.786-17.331c5.884-10.152 11.887-23.31 11.887-35.86C50.984 11.655 39.531.243 25.492.243"/>
    </g>
</svg>
